# xmcd CD database file
#
# Track frame offsets:
#	150
#	34990
#	91575
#	153332
#	207557
#	233130
#
# Disc length: 3952 seconds
#
# Revision: 0
# Processed by: cddbd v1.5.1PL2 Copyright (c) Steve Scherf et al.
# Submitted via: CDex 1.51
#
DISCID=440f6e06
DTITLE=Kei Akagi Trio - Live - Shapes In Time [CD1]
DYEAR=2006
DGENRE=Jazz
TTITLE0=Tri-Cat-Ism
TTITLE1=Perhaps With You
TTITLE2=It Could Happen To You
TTITLE3=That's All
TTITLE4=Water Garden
TTITLE5=Shapes In Time
EXTD=YEAR: 2006
EXTT0=
EXTT1=
EXTT2=
EXTT3=
EXTT4=
EXTT5=
PLAYORDER=
